<svg width="14" height="12" viewBox="0 0 14 12" fill="none" xmlns="http://www.w3.org/2000/svg">
<path fill-rule="evenodd" clip-rule="evenodd" d="M4.37502 1.25C2.84537 1.25 1.66669 2.41992 1.66669 3.89714C1.66669 4.8112 2.08119 5.68129 2.91789 6.68473C3.76002 7.69468 4.9742 8.77591 6.4865 10.1211L7.00128 10.5808L7.51315 10.1272C7.51335 10.127 7.51295 10.1273 7.51315 10.1272C9.02528 8.77925 10.2399 7.69622 11.082 6.68558C11.9189 5.68132 12.3334 4.8112 12.3334 3.89714C12.3334 2.41992 11.1547 1.25 9.62502 1.25C8.75785 1.25 7.92042 1.6484 7.37759 2.27369L7.00002 2.70862L6.62245 2.27369C6.07962 1.6484 5.24219 1.25 4.37502 1.25ZM0.666687 3.89714C0.666687 1.84956 2.31133 0.25 4.37502 0.25C5.35192 0.25 6.29217 0.623056 7.00002 1.24015C7.70788 0.623056 8.64812 0.25 9.62502 0.25C11.6887 0.25 13.3334 1.84956 13.3334 3.89714C13.3334 5.14602 12.7562 6.23857 11.8503 7.32573C10.9595 8.39476 9.69775 9.51946 8.22654 10.8309L8.17856 10.8736L8.17748 10.8746L6.99876 11.9192L5.82188 10.8683L5.78864 10.8387C4.311 9.52437 3.04374 8.39715 2.14986 7.32514C1.24385 6.2386 0.666687 5.14602 0.666687 3.89714Z" fill="#ffffff"/>
</svg>
